<svg xmlns="http://www.w3.org/2000/svg" width="32" height="32" viewBox="0 0 32 32">
  <path id="Icon_simple-spotify" data-name="Icon simple-spotify" d="M16,0A16,16,0,1,0,32,16,16.047,16.047,0,0,0,16,0Zm7.361,23.12A.953.953,0,0,1,22,23.44c-3.76-2.32-8.48-2.8-14.081-1.521A.989.989,0,1,1,7.44,20c6.08-1.361,11.36-.8,15.52,1.76a.961.961,0,0,1,.4,1.36Zm1.92-4.4a1.208,1.208,0,0,1-1.683.4A20.734,20.734,0,0,0,7.68,17.28a1.215,1.215,0,0,1-.72-2.321,23.415,23.415,0,0,1,18,2.161,1.13,1.13,0,0,1,.321,1.6Zm.16-4.48C20.32,11.2,11.76,10.88,6.88,12.4A1.469,1.469,0,0,1,6,9.6c5.68-1.68,15.04-1.36,20.961,2.161a1.547,1.547,0,0,1,.559,2.08,1.674,1.674,0,0,1-2.079.4Z" fill="#fff"/>
</svg>
