<svg xmlns="http://www.w3.org/2000/svg" width="32" height="32" viewBox="0 0 32 32">
  <path id="Icon_metro-youtube" data-name="Icon metro-youtube" d="M11.733,1.928,9.571,6.217,7.409,1.928H4.651l3.9,6.791.023-.013v5.222h2V8.706l.023.013,3.9-6.791Zm5.838,4a1.013,1.013,0,0,1,1,1v4a1,1,0,1,1-2,0v-4a1.013,1.013,0,0,1,1-1Zm0-2a3.009,3.009,0,0,0-3,3v4a3,3,0,1,0,6,0v-4a3.009,3.009,0,0,0-3-3Zm9,0V11.8c-.873.728-2,1.167-2-1.426V3.928h-2v6.854h0c.031,1.653.379,4.63,4,2.21v.936h2v-10h-2Zm3,20a1,1,0,0,0-1,1v1h2v-1a1,1,0,0,0-1-1Zm-9,1v5.25c.677.677,2,.75,2-.25V25.241C22.571,24.241,21.571,23.928,20.571,24.928ZM34.407,20.1a4.158,4.158,0,0,0-4.089-4.01c-2.181-.109-7.17-.163-11.554-.163s-9.728.054-11.909.163A4.158,4.158,0,0,0,2.767,20.1c-.131,2.347-.2,3.2-.2,4.372s.065,2.934.2,5.282a4.158,4.158,0,0,0,4.089,4.01c2.181.109,7.525.163,11.909.163s9.373-.054,11.554-.163a4.158,4.158,0,0,0,4.089-4.01q.164-2.934.164-5.282c0-1.565-.055-2.416-.164-4.372ZM8.571,31.928h-2v-10h-2v-2h6v2h-2Zm8,0h-2v-.936c-3.8,2.134-3.966.069-4-1.585h0V23.928h2v5.51c0,1.208,1.127,1.091,2,.364V23.928h2Zm8-2.029c0,2.09-2.141,2.7-4,1.075v.954h-2v-12h2v3.25c2-2,4-1.25,4,.75Zm8-3.971v1h-4v2a1,1,0,1,0,2,0v-1h2v1a3,3,0,0,1-6,0v-4a3,3,0,1,1,6,0v1Z" transform="translate(-2.571 -1.928)" fill="#fff"/>
</svg>
